# xmcd
#
# Track frame offsets:
#	150
#	14746
#	29203
#	45442
#	65152
#	78884
#	94963
#	108051
#	135478
#	147384
#	167933
#	186242
#	201380
#	215162
#	233232
#	248560
#	265801
#	283672
#	301286
#
# Disc length: 4195 seconds
#
# Revision: 2
# Processed by: cddbd v1.5.2PL0 Copyright (c) Steve Scherf et al.
# Submitted via: EZCDDA 4.3.2
#
DISCID=21106113
DTITLE=ok - casolina
DYEAR=1900
DGENRE=
TTITLE0=casolina
TTITLE1=boro boro
TTITLE2=lonely
TTITLE3=green day
TTITLE4=cool vibes
TTITLE5=la tortura
TTITLE6=crazy frog
TTITLE7=get right
TTITLE8=here without
TTITLE9=hold you down
TTITLE10=lose my breth
TTITLE11=hollaback girl
TTITLE12=in my dreams
TTITLE13=incomplete
TTITLE14=tike tike kardi
TTITLE15=lonely no more
TTITLE16=rich girl
TTITLE17=the reason
TTITLE18=touch my fire
EXTD=
EXTT0=
EXTT1=
EXTT2=
EXTT3=
EXTT4=
EXTT5=
EXTT6=
EXTT7=
EXTT8=
EXTT9=
EXTT10=
EXTT11=
EXTT12=
EXTT13=
EXTT14=
EXTT15=
EXTT16=
EXTT17=
EXTT18=
PLAYORDER=
